<?xml version="1.0" encoding="UTF-8"?>
<svg id="Layer_2" data-name="Layer 2" xmlns="http://www.w3.org/2000/svg" viewBox="0 0 360.7148 340.1196">
  <defs>
    <style>
      .cls-1 {
        fill: #ef94c1;
      }

      .cls-1, .cls-2, .cls-3 {
        fill-rule: evenodd;
      }

      .cls-2 {
        fill: #ff007e;
      }
    </style>
  </defs>
  <g id="katman_1" data-name="katman 1">
    <g id="Layer_1-2" data-name="Layer_1">
      <g id="_1739264404256" data-name=" 1739264404256">
        <path class="cls-2" d="M153.583,277.4282c-9.0218-11.0691-12.7374-13.8944-21.1806-23.2757-3.7196-4.1334-9.6893-9.1554-13.8921-13.1655l-56.1101-50.8279c-3.4043-3.1424-5.4992-6.3888-8.6902-9.3396-7.7644-7.1806-17.3281-21.199-22.5994-30.8767C7.1263,105.9105,16.582,50.0791,61.3758,26.9201c8.0377-4.1553,16.8361-6.9484,27.1333-8.2854,10.7693-1.3985,21.8143-.1931,31.6522,2.5995,6.5599,1.8619,20.6574,8.1501,23.6378,11.8179-20.2757,2.0911-28.3558,3.323-43.5583,12.8963-10.3135,6.4945-20.9587,17.4488-27.0675,29.4259-15.182,29.7669-9.6027,61.3641,4.2526,89.5437,8.6829,17.6597,15.1336,28.8603,26.0935,44.8011,12.6188,18.3539,28.2239,39.103,42.3467,55.5986,4.7922,5.5973,22.566,26.4044,23.9944,32.4314l-16.2776-20.3208Zm26.8817,37.4123l9.3557-12.2877c8.9811-11.5178,30.1365-34.9792,41.4188-45.0836l11.303-10.3373c9.8155-8.4232,24.6803-23.02,34.1784-30.7065l11.2174-10.4062c3.5889-3.7081,7.4664-6.7969,11.2063-10.435l15.5447-16.8854c12.3695-15.6435,21.0084-27.5006,27.3386-48.3987,7.3681-24.3225,5.7574-51.8972-5.6629-72.2967C306.7418,5.0894,238.0853,2.2201,203.9476,38.5055c-6.5223,6.9328-11.346,11.9899-15.9675,21.8927-1.4908,3.1942-5.6061,11.7926-7.5155,13.9944-3.8939-4.4902-9.0755-21.0886-20.6728-33.3052-.9945-1.048-1.7871-1.4942-2.8102-2.582-4.5226-4.8072-8.7664-8.0572-15.0626-11.973C81.331-11.1454-6.1314,40.7155,18.6085,130.6309c6.7211,24.4281,19.087,40.2653,31.5597,54.9471,7.7889,9.1686,35.9302,35.4742,47.153,44.7594,1.2444,1.0296,1.8656,1.3775,2.9654,2.4592l11.3984,10.2109c1.0797,.9972,1.8804,1.442,2.999,2.4377,1.0805,.9617,1.5625,1.7176,2.638,2.7384l48.4977,48.8641c1.8698,2.2239,3.0391,3.6364,4.9118,5.8892,1.8011,2.1667,8.0766,10.7647,9.733,11.9037h0Z"/>
        <path class="cls-3" d="M180.4645,314.8405c-1.6562-1.1392-7.9319-9.737-9.7324-11.9037-1.8731-2.2525-3.0424-3.6653-4.912-5.889l-48.4981-48.8641c-1.0755-1.0206-1.5572-1.7769-2.6376-2.7382-1.1192-.996-1.9195-1.4411-2.9994-2.4378l-11.3982-10.2111c-1.0998-1.082-1.7215-1.4299-2.9656-2.4588-11.2226-9.2857-39.364-35.591-47.1524-44.7594-12.4735-14.6826-24.839-30.5194-31.5605-54.9473C-6.1315,40.7157,81.3312-11.1454,141.919,26.5325c6.2963,3.9158,10.5406,7.1656,15.0632,11.973,1.0227,1.0878,1.8153,1.534,2.8102,2.5818,11.5971,12.2169,16.7783,28.8152,20.6722,33.305,1.9091-2.2014,6.0247-10.7995,7.5158-13.9944,4.6209-9.9027,9.4453-14.9595,15.9673-21.8924C238.0853,2.2203,306.7418,5.089,336.3648,58.003c11.4203,20.3999,13.0312,47.9746,5.6629,72.2971-6.33,20.8977-14.9693,32.7548-27.3387,48.3987l-15.5447,16.8852c-3.74,3.6381-7.6178,6.7271-11.2067,10.4352l-11.2171,10.4061c-9.4983,7.6868-24.363,22.2835-34.1784,30.7067l-11.3034,10.3372c-11.2819,10.1045-32.4373,33.566-41.4183,45.0838l-9.3561,12.2877h0ZM258.5393,0h8.7324c12.9092,.5694,25.7955,3.6555,37.7741,9.4048,37.3762,17.9411,55.6691,52.4156,55.6691,92.7369,0,52.5497-34.3488,87.3823-70.1559,120.3864-24.2794,22.3789-55.5159,47.9318-75.689,72.6391-5.4388,5.3626-18.9826,22.5525-26.2445,33.1985-2.7445,4.0228-5.0611,7.7834-7.9874,11.7539l-10.1239-12.3027-28.8142-34.1886c-14.0205-16.6345-29.3579-32.1652-45.4966-46.8162-27.5651-25.0226-58.442-46.8187-77.6282-80.0283C-.1516,134.3707-7.451,89.5435,9.6229,55.6726,38.9793-2.5662,118.8439-19.8682,166.495,27.7889c3.9449,3.943,11.5402,14.4452,13.9695,16.0717,7.822-10.1805,15.676-21.0061,34.1062-31.402C227.9635,4.9043,243.1255,.6706,258.5393,0h0Z"/>
        <path class="cls-1" d="M169.8606,297.749c-1.4284-6.027-19.2021-26.8341-23.9944-32.4314-14.1228-16.4956-29.7279-37.2448-42.3467-55.5986-10.9599-15.9408-17.4106-27.1413-26.0935-44.8011-13.8553-28.1796-19.4346-59.7768-4.2526-89.5437,6.1088-11.977,16.7539-22.9314,27.0675-29.4259,15.2025-9.5733,23.2826-10.8052,43.5583-12.8963-2.9804-3.6678-17.0779-9.956-23.6378-11.8179-9.838-2.7925-20.8829-3.9979-31.6522-2.5995-10.2972,1.337-19.0956,4.1301-27.1333,8.2854C16.582,50.0791,7.1263,105.9105,31.1107,149.9428c5.2712,9.6777,14.835,23.6961,22.5994,30.8767,3.1909,2.9508,5.2858,6.1972,8.6902,9.3396l56.1101,50.8279c4.2029,4.0102,10.1725,9.0322,13.8921,13.1655,8.4432,9.3812,12.1588,12.2066,21.1806,23.2757l16.2776,20.3208h0Z"/>
      </g>
    </g>
  </g>
</svg>